{"title":"Trespass.2011.BDRip.XviD.Ac3-KoDeKinG","uid":7114411,"size":1455003072,"categoryP":"video","categoryS":"movies","magnet":"?xt=urn:btih:5c174e580f0dca2c79eb407733a380c3a09d5c53&amp;dn=Trespass.2011.BDRip.XviD.Ac3-KoDeKinG&amp;tr=udp%3A%2F%2Ftracker.openbittorrent.com%3A80&amp;tr=udp%3A%2F%2Fopen.demonii.com%3A1337&amp;tr=udp%3A%2F%2Ftracker.coppersurfer.tk%3A6969&amp;tr=udp%3A%2F%2Fexodus.desync.com%3A6969","seeders":1,"leechers":0,"uploader":"crazy-torrent","files":2,"time":1332177580,"description":" &lt;a href=&quot;http://www.scenespeeds.com/&quot; rel=&quot;nofollow&quot; target=&quot;_NEW&quot;&gt;http://www.scenespeeds.com/&lt;/a&gt;\n\n Description\n\nChannel: 6 channels\nIMDB: http://www.imdb.com/title/tt1674784/\nsubs: none Video\nID: 0\nFormat: MPEG-4 Visual\nFormat profile: Advanced Simple@L5\nFormat settings, BVOP: 1\nFormat settings, QPel: No\nFormat settings, GMC: No warppoints\nFormat settings, Matrix: Default (H.263)\nCodec ID: XVID\nCodec ID/Hint: XviD\nDuration: 1h 30mn\nBit rate: 1 492 Kbps\nWidth: 720 pixels\nHeight: 304 pixels\nDisplay aspect ratio: 2.35:1\nFrame rate: 19.181 fps\nColor space: YUV\nChroma subsampling: 4:2:0\nBit depth: 8 bits\nScan type: Progressive\nCompression mode: Lossy\nBits/(Pixel*Frame): 0.355\nStream size: 968 MiB (70%)\nWriting library: XviD 1.2.1 (UTC 2008-12-04) Audio\nID: 1\nFormat: AC-3\nFormat/Info: Audio Coding 3\nMode extension: CM (complete main)\nCodec ID: 2000\nDuration: 1h 30mn\nBit rate mode: Constant\nBit rate: 640 Kbps\nChannel(s): 6 channels\nChannel positions: Front: L C R, Side: L R, LFE\nSampling rate: 48.0 KHz\nBit depth: 16 bits\nCompression mode: Lossy\nStream size: 415 MiB (30%)\nAlignment: Aligned on interleaves\nInterleave, duration: 64 ms (1.23 video frame)\nInterleave, preload duration: 192 ms\nTitle: F1_T3_Audio - English NOTE:\nStraight up encode from the BD disk\n  &lt;a href=&quot;\nhttp://www.scenespeeds.com/&quot; rel=&quot;nofollow&quot; target=&quot;_NEW&quot;&gt;\nhttp://www.scenespeeds.com/&lt;/a&gt;\t","torrent":{"xt":"urn:btih:5c174e580f0dca2c79eb407733a380c3a09d5c53","amp;dn":"Trespass.2011.BDRip.XviD.Ac3-KoDeKinG","amp;tr":["udp%3A%2F%2Ftracker.openbittorrent.com%3A80","udp%3A%2F%2Fopen.demonii.com%3A1337","udp%3A%2F%2Ftracker.coppersurfer.tk%3A6969","udp%3A%2F%2Fexodus.desync.com%3A6969"],"infoHash":"5c174e580f0dca2c79eb407733a380c3a09d5c53","infoHashBuffer":{"type":"Buffer","data":[92,23,78,88,15,13,202,44,121,235,64,119,51,163,128,195,160,157,92,83]},"announce":[],"urlList":[]}}